<svg width="58" height="68" viewBox="0 0 58 68" fill="none" xmlns="http://www.w3.org/2000/svg">
<path fill-rule="evenodd" clip-rule="evenodd" d="M38.2482 58.0662L29.3694 50.5546L29.2328 50.4391L24.3152 46.2788L20.7637 51.9738L0.820312 40.4513V41.3784C0.820312 56.1635 15.341 65.6855 29.2328 67.9771V67.9994L29.3011 67.9883L29.3694 67.9994V67.9771C41.3859 65.9948 53.8729 58.6025 57.0253 47.0735C57.0253 42.438 55.4596 38.5971 51.9081 35.9483C49.0668 33.8292 43.1658 30.3857 40.5704 28.9288C39.5232 29.5028 36.9915 30.6506 35.2431 30.6506C33.6953 30.6506 31.4625 29.7871 29.3694 28.7187C29.3238 28.6954 29.2782 28.672 29.2328 28.6486C28.4183 28.2282 27.6279 27.7788 26.9106 27.3395C24.8343 26.0681 23.3135 25.3088 22.8126 25.088L23.9054 22.9689L21.7199 21.3796L23.4956 17.9361L26.091 19.2605L28.0034 16.3468L25.1348 14.7575L27.457 11.314L29.2328 12.3108L29.3694 12.3875L30.0523 12.7709L31.5549 10.5193L40.5704 15.6846C41.8909 16.5676 44.3405 19.393 43.5756 23.6311C50.5694 27.4455 55.9605 30.3416 57.7818 31.3128V5.08921C49.6465 1.09271 35.5445 0.0712728 29.3694 0.0563965L29.3011 0.0564382L29.2328 0.0563965C23.0577 0.0712728 8.95564 1.09271 0.820312 5.08921V27.7369C0.820312 31.5777 5.87445 36.3456 9.28941 38.4647C12.0214 40.16 17.804 43.056 20.3539 44.2922L25.1348 36.8754L29.2328 43.4975L29.3694 43.7182L38.2482 58.0662Z" fill="#FD6F02"/>
<path d="M29.8384 2.08447C15.6517 2.08447 6.01484 5.12669 2.96973 6.64781V43.6615H55.0949V6.64781C52.5871 5.12669 44.025 2.08447 29.8384 2.08447Z" fill="url(#paint0_linear_407_2414)"/>
<defs>
<linearGradient id="paint0_linear_407_2414" x1="29.0323" y1="2.08447" x2="29.0323" y2="43.6615" gradientUnits="userSpaceOnUse">
<stop stop-color="white" stop-opacity="0.45"/>
<stop offset="0.286458" stop-color="white" stop-opacity="0"/>
</linearGradient>
</defs>
</svg>
