<svg width="413" height="74" viewBox="0 0 413 74" fill="none" xmlns="http://www.w3.org/2000/svg">
<path d="M77.2778 7.53558H95.2159V12.2271H83.2572V15.6921H88.8072C91.4034 15.6921 93.3965 16.244 94.7866 17.3479C96.1767 18.4518 96.8717 20.036 96.8717 22.1007C96.8717 24.2676 96.0949 25.9643 94.5413 27.1909C92.9877 28.397 90.8106 29 88.01 29H77.2778V7.53558ZM87.6114 24.6458C88.6335 24.6458 89.4103 24.4414 89.9418 24.0325C90.4733 23.6237 90.739 23.0411 90.739 22.2847C90.739 20.772 89.6965 20.0156 87.6114 20.0156H83.2572V24.6458H87.6114ZM119.55 7.53558V29H113.571V12.3497H107.407L107.285 15.8454C107.182 18.9117 106.927 21.4057 106.518 23.3273C106.13 25.2488 105.455 26.7411 104.494 27.8041C103.533 28.8467 102.174 29.368 100.416 29.368C99.5983 29.368 98.6784 29.2453 97.6563 29L97.9936 24.0325C98.2593 24.0938 98.5353 24.1245 98.8215 24.1245C99.6187 24.1245 100.232 23.8077 100.661 23.1739C101.091 22.5402 101.397 21.6612 101.581 20.5369C101.765 19.3921 101.888 17.91 101.949 16.0907L102.256 7.53558H119.55ZM134.69 29.4293C132.421 29.4293 130.376 28.9489 128.557 27.9881C126.758 27.0273 125.337 25.6986 124.295 24.0019C123.273 22.3051 122.762 20.3938 122.762 18.2678C122.762 16.1418 123.273 14.2304 124.295 12.5337C125.337 10.837 126.758 9.50826 128.557 8.54747C130.376 7.58669 132.421 7.10629 134.69 7.10629C136.959 7.10629 138.993 7.58669 140.792 8.54747C142.611 9.50826 144.032 10.837 145.054 12.5337C146.096 14.2304 146.618 16.1418 146.618 18.2678C146.618 20.3938 146.096 22.3051 145.054 24.0019C144.032 25.6986 142.611 27.0273 140.792 27.9881C138.993 28.9489 136.959 29.4293 134.69 29.4293ZM134.69 24.4005C135.773 24.4005 136.754 24.145 137.633 23.6339C138.512 23.1228 139.207 22.4074 139.718 21.4875C140.229 20.5471 140.485 19.4739 140.485 18.2678C140.485 17.0617 140.229 15.9987 139.718 15.0788C139.207 14.1384 138.512 13.4127 137.633 12.9017C136.754 12.3906 135.773 12.1351 134.69 12.1351C133.606 12.1351 132.625 12.3906 131.746 12.9017C130.867 13.4127 130.172 14.1384 129.661 15.0788C129.15 15.9987 128.894 17.0617 128.894 18.2678C128.894 19.4739 129.15 20.5471 129.661 21.4875C130.172 22.4074 130.867 23.1228 131.746 23.6339C132.625 24.145 133.606 24.4005 134.69 24.4005ZM165.564 12.3497H155.843V29H149.864V7.53558H165.594L165.564 12.3497ZM177.233 7.53558H183.213V20.1383L192.075 7.53558H197.778V29H191.799V16.428L182.968 29H177.233V7.53558ZM222.809 7.53558V29H216.738V20.6289H208.458V29H202.387V7.53558H208.458V15.6001H216.738V7.53558H222.809ZM247.659 20.7822H245.114V29H239.165V20.7822H236.62L232.419 29H225.397L231.499 17.7465L225.765 7.53558H232.143L236.436 15.876H239.165V7.53558H245.114V15.876H247.72L252.105 7.53558H258.452L252.718 17.7465L258.82 29H251.829L247.659 20.7822ZM278.012 24.3085V29H260.779V7.53558H277.614V12.2271H266.789V15.8454H276.326V20.3836H266.789V24.3085H278.012ZM301.893 7.53558V29H295.822V20.6289H287.543V29H281.471V7.53558H287.543V15.6001H295.822V7.53558H301.893ZM323.738 24.3085V29H306.505V7.53558H323.339V12.2271H312.515V15.8454H322.051V20.3836H312.515V24.3085H323.738ZM337.009 7.53558C338.951 7.53558 340.638 7.86266 342.069 8.51681C343.5 9.15052 344.604 10.0704 345.38 11.2765C346.157 12.4622 346.546 13.8625 346.546 15.4774C346.546 17.0924 346.157 18.4927 345.38 19.6783C344.604 20.864 343.5 21.7839 342.069 22.438C340.638 23.0717 338.951 23.3886 337.009 23.3886H333.268V29H327.197V7.53558H337.009ZM336.641 18.6051C337.888 18.6051 338.829 18.3393 339.462 17.8078C340.096 17.2559 340.413 16.4791 340.413 15.4774C340.413 14.4757 340.096 13.6989 339.462 13.147C338.829 12.5951 337.888 12.3191 336.641 12.3191H333.268V18.6051H336.641ZM363.029 24.8298H353.952L352.266 29H346.072L355.547 7.53558H361.526L371.032 29H364.715L363.029 24.8298ZM361.25 20.3529L358.49 13.4843L355.731 20.3529H361.25ZM381.587 18.0225H390.541V22.4993H381.587V18.0225ZM84.6983 44.1063C86.8652 44.1063 88.8072 44.5867 90.5244 45.5475C92.2416 46.4878 93.5805 47.8063 94.5413 49.5031C95.5225 51.1998 96.0132 53.1213 96.0132 55.2678C96.0132 57.4142 95.5225 59.3358 94.5413 61.0325C93.5805 62.7292 92.2416 64.058 90.5244 65.0188C88.8072 65.9591 86.8652 66.4293 84.6983 66.4293C82.7154 66.4293 80.9267 66.0818 79.3322 65.3867C77.7582 64.6917 76.4499 63.69 75.4073 62.3817L79.2402 58.8861C80.6712 60.5623 82.3884 61.4005 84.3917 61.4005C85.6796 61.4005 86.7732 61.053 87.6727 60.3579C88.5926 59.6424 89.2263 58.6612 89.5738 57.4142H81.816V52.9374H89.5125C89.165 51.7517 88.5415 50.8216 87.642 50.147C86.7426 49.4724 85.6591 49.1351 84.3917 49.1351C82.3884 49.1351 80.6712 49.9732 79.2402 51.6495L75.4073 48.1539C76.4499 46.8456 77.7582 45.8439 79.3322 45.1488C80.9267 44.4538 82.7154 44.1063 84.6983 44.1063ZM118.712 44.5356V66H112.732V49.3497H106.569L106.446 52.8454C106.344 55.9117 106.088 58.4057 105.68 60.3273C105.291 62.2488 104.617 63.7411 103.656 64.8041C102.695 65.8467 101.336 66.368 99.5775 66.368C98.7599 66.368 97.8399 66.2453 96.8178 66L97.1551 61.0325C97.4209 61.0938 97.6969 61.1245 97.983 61.1245C98.7803 61.1245 99.3936 60.8077 99.8229 60.1739C100.252 59.5402 100.559 58.6612 100.743 57.5369C100.927 56.3921 101.049 54.91 101.111 53.0907L101.417 44.5356H118.712ZM140.536 61.3085V66H123.303V44.5356H140.137V49.2271H129.313V52.8454H138.849V57.3836H129.313V61.3085H140.536ZM152.673 57.7822H149.913V66H143.872V44.5356H149.913V52.876H152.826L157.947 44.5356H164.325L157.609 54.8998L164.386 66H157.548L152.673 57.7822ZM183.358 49.3497H176.796V66H170.817V49.3497H164.224V44.5356H183.358V49.3497ZM195.969 44.5356C197.911 44.5356 199.598 44.8627 201.029 45.5168C202.46 46.1505 203.564 47.0704 204.34 48.2765C205.117 49.4622 205.506 50.8625 205.506 52.4774C205.506 54.0924 205.117 55.4927 204.34 56.6783C203.564 57.864 202.46 58.7839 201.029 59.438C199.598 60.0717 197.911 60.3886 195.969 60.3886H192.228V66H186.157V44.5356H195.969ZM195.601 55.6051C196.848 55.6051 197.789 55.3393 198.422 54.8078C199.056 54.2559 199.373 53.4791 199.373 52.4774C199.373 51.4757 199.056 50.6989 198.422 50.147C197.789 49.5951 196.848 49.3191 195.601 49.3191H192.228V55.6051H195.601ZM208.256 44.5356H214.236V57.1383L223.097 44.5356H228.801V66H222.821V53.428L213.99 66H208.256V44.5356ZM242.088 57.7822H239.328V66H233.287V44.5356H239.328V52.876H242.241L247.362 44.5356H253.74L247.024 54.8998L253.801 66H246.963L242.088 57.7822ZM270.05 61.8298H260.974L259.287 66H253.093L262.568 44.5356H268.548L278.053 66H271.737L270.05 61.8298ZM268.272 57.3529L265.512 50.4843L262.752 57.3529H268.272Z" fill="black"/>
<path fill-rule="evenodd" clip-rule="evenodd" d="M38.2482 62.0662L29.3694 54.5546L29.2328 54.4391L24.3152 50.2788L20.7637 55.9738L0.820312 44.4513V45.3784C0.820312 60.1635 15.341 69.6855 29.2328 71.9771V71.9994L29.3011 71.9883L29.3694 71.9994V71.9771C41.3859 69.9948 53.8729 62.6025 57.0253 51.0735C57.0253 46.438 55.4596 42.5971 51.9081 39.9483C49.0668 37.8292 43.1658 34.3857 40.5704 32.9288C39.5232 33.5028 36.9915 34.6506 35.2431 34.6506C33.6953 34.6506 31.4625 33.7871 29.3694 32.7187C29.3238 32.6954 29.2782 32.672 29.2328 32.6486C28.4183 32.2282 27.6279 31.7788 26.9106 31.3395C24.8343 30.0681 23.3135 29.3088 22.8126 29.088L23.9054 26.9689L21.7199 25.3796L23.4956 21.9361L26.091 23.2605L28.0034 20.3468L25.1348 18.7575L27.457 15.314L29.2328 16.3108L29.3694 16.3875L30.0523 16.7709L31.5549 14.5193L40.5704 19.6846C41.8909 20.5676 44.3405 23.393 43.5756 27.6311C50.5694 31.4455 55.9605 34.3416 57.7818 35.3128V9.08921C49.6465 5.09271 35.5445 4.07127 29.3694 4.0564L29.3011 4.05644L29.2328 4.0564C23.0577 4.07127 8.95564 5.09271 0.820312 9.08921V31.7369C0.820312 35.5777 5.87445 40.3456 9.28941 42.4647C12.0214 44.16 17.804 47.056 20.3539 48.2922L25.1348 40.8754L29.2328 47.4975L29.3694 47.7182L38.2482 62.0662Z" fill="#FD6F02"/>
<path d="M29.8384 6.08447C15.6517 6.08447 6.01484 9.12669 2.96973 10.6478V47.6615H55.0949V10.6478C52.5871 9.12669 44.025 6.08447 29.8384 6.08447Z" fill="url(#paint0_linear_108_523)"/>
<defs>
<linearGradient id="paint0_linear_108_523" x1="29.0323" y1="6.08447" x2="29.0323" y2="47.6615" gradientUnits="userSpaceOnUse">
<stop stop-color="white" stop-opacity="0.45"/>
<stop offset="0.286458" stop-color="white" stop-opacity="0"/>
</linearGradient>
</defs>
</svg>
