<svg width="12" height="20" viewBox="0 0 12 20" fill="none" xmlns="http://www.w3.org/2000/svg">
<path d="M5.96465 0C3.16465 0 0.864647 2.3 0.864647 5.1C0.864647 7.9 3.16465 10.2 5.96465 10.2C8.76465 10.2 11.0646 7.9 11.0646 5.1C11.0646 2.3 8.76465 0 5.96465 0ZM5.96465 7.2C4.86465 7.2 3.86465 6.3 3.86465 5.1C3.86465 4 4.76465 3 5.96465 3C7.16465 3 8.06464 3.9 8.06464 5.1C8.06464 6.3 7.16465 7.2 5.96465 7.2ZM8.06464 14.4C9.86464 14 10.9646 13.2 11.1646 13.1C11.5646 12.8 11.7646 12.4 11.7646 11.9C11.7646 11.1 11.0646 10.4 10.2646 10.4C9.96465 10.4 9.66465 10.5 9.36465 10.7C9.36465 10.7 7.96464 11.6 6.06464 11.6C4.16464 11.6 2.66464 10.6 2.56464 10.6C2.36464 10.4 2.06465 10.4 1.76465 10.4C0.964648 10.4 0.264648 11.1 0.264648 11.9C0.264648 12.4 0.464645 12.9 0.964645 13.1C1.06465 13.2 2.16465 13.9 3.96465 14.3L1.16464 17.2C0.564642 17.8 0.664642 18.7 1.16464 19.3C1.46464 19.6 1.86465 19.8 2.26465 19.8C2.66465 19.8 3.06465 19.6 3.36465 19.3L6.16464 16.5L8.96465 19.3C9.56465 19.9 10.4646 19.9 11.0646 19.3C11.6646 18.7 11.6646 17.8 11.0646 17.2L8.06464 14.4Z" fill="black"/>
</svg>
