<svg width="20" height="12" viewBox="0 0 20 12" fill="none" xmlns="http://www.w3.org/2000/svg">
<path d="M18.8025 0.899998C19.0025 0.399998 18.8025 0.0999985 18.2025 0.0999985H16.1025C15.6025 0.0999985 15.3025 0.400001 15.2025 0.700001C15.2025 0.700001 14.1025 3.3 12.6025 5C12.1025 5.5 11.9025 5.6 11.6025 5.6C11.4025 5.6 11.3025 5.4 11.3025 5V0.799999C11.3025 0.299999 11.1025 0 10.7025 0H7.40254C7.10254 0 6.90254 0.2 6.90254 0.5C6.90254 1 7.70254 1.1 7.70254 2.6V5.8C7.70254 6.5 7.50254 6.6 7.30254 6.6C6.60254 6.6 4.80254 4 3.80254 1C3.60254 0.4 3.40254 0.200001 2.90254 0.200001H0.802544C0.202544 0.200001 0.102539 0.499999 0.102539 0.799999C0.102539 1.3 0.802542 4.1 3.40254 7.8C5.20254 10.3 7.60254 11.7 9.80254 11.7C11.1025 11.7 11.3025 11.4 11.3025 10.9V8.8C11.3025 8.2 11.5025 8.1 11.8025 8.1C12.1025 8.1 12.6025 8.3 13.9025 9.5C15.4025 11 15.6025 11.6 16.4025 11.6H18.5025C19.1025 11.6 19.4025 11.3 19.2025 10.7C19.0025 10.1 18.4025 9.2 17.4025 8.2C16.9025 7.6 16.2025 7 15.9025 6.7C15.6025 6.3 15.7025 6.1 15.9025 5.8C15.9025 5.8 18.6025 2.1 18.8025 0.899998Z" fill="black"/>
</svg>
