<svg width="23" height="16" viewBox="0 0 23 16" fill="none" xmlns="http://www.w3.org/2000/svg">
<path d="M21.5029 2.4C21.3029 1.5 20.5029 0.8 19.6029 0.5C17.9029 0 11.2029 0 11.2029 0C11.2029 0 4.50293 0 2.80293 0.5C1.90293 0.7 1.20293 1.5 0.90293 2.4C0.50293 4.1 0.50293 7.5 0.50293 7.5C0.50293 7.5 0.50293 11 1.00293 12.7C1.20293 13.6 2.00293 14.3 2.90293 14.6C4.60293 15.1 11.3029 15.1 11.3029 15.1C11.3029 15.1 18.0029 15.1 19.7029 14.6C20.6029 14.4 21.3029 13.6 21.6029 12.7C22.1029 11 22.1029 7.5 22.1029 7.5C22.1029 7.5 22.0029 4.1 21.5029 2.4ZM9.20293 10.8V4.4L14.7029 7.6L9.20293 10.8Z" fill="black"/>
</svg>
